<?xml version="1.0" encoding="UTF-8" standalone="no"?>
<svg
   xmlns:dc="http://purl.org/dc/elements/1.1/"
   xmlns:cc="http://creativecommons.org/ns#"
   xmlns:rdf="http://www.w3.org/1999/02/22-rdf-syntax-ns#"
   xmlns:svg="http://www.w3.org/2000/svg"
   xmlns="http://www.w3.org/2000/svg"
   xmlns:sodipodi="http://sodipodi.sourceforge.net/DTD/sodipodi-0.dtd"
   xmlns:inkscape="http://www.inkscape.org/namespaces/inkscape"
   height="679.00531"
   width="3664.6694"
   viewBox="0 0 3664.6695 679.00531"
   id="svg4167"
   version="1.1"
   inkscape:version="0.92.4 (unknown)"
   sodipodi:docname="jsday-canarias-header-logo.svg">
  <sodipodi:namedview
     pagecolor="#000"
     bordercolor="#666666"
     borderopacity="1"
     objecttolerance="10"
     gridtolerance="10"
     guidetolerance="10"
     inkscape:pageopacity="0"
     inkscape:pageshadow="2"
     inkscape:window-width="1920"
     inkscape:window-height="1025"
     id="namedview17"
     showgrid="false"
     inkscape:zoom="0.4641748"
     inkscape:cx="1147.6199"
     inkscape:cy="101.76148"
     inkscape:window-x="0"
     inkscape:window-y="0"
     inkscape:window-maximized="1"
     inkscape:current-layer="svg4167"
     fit-margin-top="0"
     fit-margin-left="0"
     fit-margin-right="0"
     fit-margin-bottom="0" />
  <metadata
     id="metadata4177">
    <rdf:RDF>
      <cc:Work
         rdf:about="">
        <dc:format>image/svg+xml</dc:format>
        <dc:type
           rdf:resource="http://purl.org/dc/dcmitype/StillImage" />
        <dc:title></dc:title>
      </cc:Work>
    </rdf:RDF>
  </metadata>
  <defs
     id="defs4175" />
  <g
     transform="translate(2125.7466,4.4928945)"
     id="layer1"
     style="display:inline;fill:none;stroke:#e3b44b;stroke-width:3;stroke-miterlimit:4;stroke-dasharray:none;stroke-opacity:1">
    <path
       style="color:#000000;font-style:normal;font-variant:normal;font-weight:normal;font-stretch:normal;font-size:medium;line-height:normal;font-family:sans-serif;font-variant-ligatures:normal;font-variant-position:normal;font-variant-caps:normal;font-variant-numeric:normal;font-variant-alternates:normal;font-feature-settings:normal;text-indent:0;text-align:start;text-decoration:none;text-decoration-line:none;text-decoration-style:solid;text-decoration-color:#000000;letter-spacing:normal;word-spacing:normal;text-transform:none;writing-mode:lr-tb;direction:ltr;text-orientation:mixed;dominant-baseline:auto;baseline-shift:baseline;text-anchor:start;white-space:normal;shape-padding:0;clip-rule:nonzero;display:inline;overflow:visible;visibility:visible;opacity:1;isolation:auto;mix-blend-mode:normal;color-interpolation:sRGB;color-interpolation-filters:linearRGB;solid-color:#000000;solid-opacity:1;vector-effect:none;fill:#efb300;fill-opacity:1;fill-rule:nonzero;stroke:none;stroke-width:10;stroke-linecap:butt;stroke-linejoin:miter;stroke-miterlimit:4;stroke-dasharray:none;stroke-dashoffset:0;stroke-opacity:1;color-rendering:auto;image-rendering:auto;shape-rendering:auto;text-rendering:auto;enable-background:accumulate"
       d="m -2125.7461,-4.4921875 v 5 634.9999975 h 640 V -4.4921875 Z m 10,10 h 620 V 625.50781 h -620 z"
       id="rect4169"
       inkscape:connector-curvature="0" />
    <path
       d="m -1699.5465,492.69711 c 12.6901,20.72 29.2001,35.95 58.4001,35.95 24.53,0 40.2,-12.26 40.2,-29.2 0,-20.3 -16.1,-27.49 -43.1,-39.3 l -14.8,-6.35 c -42.7201,-18.2 -71.1001,-41 -71.1001,-89.2 0,-44.4 33.8301,-78.2 86.7001,-78.2 37.64,0 64.7,13.1 84.2,47.4 l -46.1001,29.6 c -10.15,-18.2 -21.1,-25.37 -38.0999,-25.37 -17.3401,0 -28.3301,11 -28.3301,25.37 0,17.76 11,24.95 36.4,35.95 l 14.8,6.34 c 50.3001,21.57 78.7001,43.56 78.7001,93 0,53.3 -41.87,82.5 -98.1001,82.5 -54.98,0 -90.5,-26.2 -107.88,-60.54 z m -209.13,5.13 c 9.3001,16.5 17.76,30.45 38.1,30.45 19.4501,0 31.72,-7.61 31.72,-37.2 l 0,-201.3 59.2,0 0,202.1 c 0,61.3 -35.9399,89.2 -88.3999,89.2 -47.4,0 -74.85,-24.53 -88.81,-54.075 z"
       id="path4171"
       inkscape:connector-curvature="0"
       style="fill:#efb300;fill-opacity:1;stroke:none;stroke-width:3;stroke-miterlimit:4;stroke-dasharray:none;stroke-opacity:1" />
  </g>
  <g
     id="flowRoot4179-3"
     style="font-style:normal;font-weight:normal;font-size:40px;line-height:125%;font-family:sans-serif;letter-spacing:0px;word-spacing:0px;display:inline;fill:#000;fill-opacity:1;stroke:none;stroke-width:1px;stroke-linecap:butt;stroke-linejoin:miter;stroke-opacity:1"
     transform="matrix(7.0576999,0,0,7.0576999,-393.91577,11.373794)">
    <g
       transform="matrix(1.9535329,0,0,1.9535329,-35.936354,-38.405743)"
       style="font-style:normal;font-weight:normal;font-size:5.66756868px;line-height:125%;font-family:sans-serif;letter-spacing:0px;word-spacing:0px;fill:#000;fill-opacity:1;stroke:none;stroke-width:1px;stroke-linecap:butt;stroke-linejoin:miter;stroke-opacity:1"
       id="flowRoot4164-6">
      <path
         d="m 115.46545,50.734695 q 0,2.205038 -0.74386,4.144409 -0.74387,1.912805 -2.07221,3.373975 -1.32834,1.434603 -3.18801,2.284739 -1.8331,0.823568 -4.01157,0.823568 l -8.87329,0 0,-21.253383 8.87329,0 q 2.17847,0 4.01157,0.850136 1.85967,0.850135 3.18801,2.284738 1.32834,1.434604 2.07221,3.373975 0.74386,1.939371 0.74386,4.117843 z m -4.17097,-0.106267 q 0.0266,-1.487737 -0.45164,-2.816073 -0.4782,-1.328337 -1.38147,-2.311306 -0.90327,-1.009535 -2.2316,-1.567437 -1.30177,-0.584468 -2.94891,-0.584468 l -3.58651,0 0,14.505434 3.58651,0 q 1.62057,0 2.89577,-0.531335 1.30177,-0.557901 2.20504,-1.514303 0.90327,-0.982969 1.38147,-2.284739 0.50477,-1.328336 0.53134,-2.895773 z"
         style="font-style:normal;font-variant:normal;font-weight:500;font-stretch:normal;font-size:26.56672859px;font-family:'Keep Calm';-inkscape-font-specification:'Keep Calm Medium';fill:#000;fill-opacity:1"
         id="path4230"
         inkscape:connector-curvature="0" />
      <path
         d="m 130.584,61.361386 -3.85218,0 0,-0.823568 q -1.00953,0.690735 -2.1519,0.956402 -1.11581,0.265667 -2.31131,0.265667 -1.1158,0 -2.01907,-0.345367 -0.90327,-0.318801 -1.56744,-0.929836 -0.66416,-0.637601 -1.0361,-1.487737 -0.34537,-0.850135 -0.34537,-1.886237 0,-1.30177 0.5579,-2.258172 0.58447,-0.982969 1.56744,-1.620571 0.98297,-0.664168 2.28474,-0.982969 1.32834,-0.3188 2.84264,-0.3188 l 2.20504,0 q 0,-1.354904 -0.8767,-2.151905 -0.87671,-0.797002 -2.52384,-0.797002 -0.797,0 -1.64714,0.292234 -0.85013,0.292234 -1.70027,1.062669 l -2.25817,-2.284739 q 1.22207,-1.168936 2.81607,-1.806537 1.62057,-0.637602 3.32084,-0.637602 1.59401,0 2.84264,0.504768 1.24864,0.504768 2.01907,1.30177 1.00954,1.009535 1.40804,2.258172 0.42507,1.248636 0.42507,3.188007 l 0,8.501353 z m -3.85218,-3.825609 0,-2.84264 -1.7534,0 q -0.797,0 -1.51431,0.106267 -0.69073,0.106267 -1.22207,0.371934 -0.50476,0.239101 -0.82356,0.637602 -0.29224,0.398501 -0.29224,0.956402 0,0.797002 0.61104,1.30177 0.6376,0.504768 1.62057,0.504768 0.85013,0 1.6737,-0.265668 0.85014,-0.265667 1.70027,-0.770435 z"
         style="font-style:normal;font-variant:normal;font-weight:500;font-stretch:normal;font-size:26.56672859px;font-family:'Keep Calm';-inkscape-font-specification:'Keep Calm Medium';fill:#000;fill-opacity:1"
         id="path4232"
         inkscape:connector-curvature="0" />
      <path
         d="m 147.45595,45.97925 -6.90735,18.251343 q -0.77044,2.045638 -2.01907,2.948907 -1.24864,0.903269 -2.97548,0.903269 -0.26567,0 -0.58447,-0.05313 -0.3188,-0.02657 -0.61103,-0.106267 l -1.2752,-3.559941 q 0.45163,0.212533 0.92983,0.3188 0.4782,0.132834 0.90327,0.132834 0.90327,0 1.64714,-0.425068 0.74387,-0.398501 1.14237,-1.514303 l 0.53133,-1.540871 -5.92438,-15.355569 4.17098,0 3.53337,9.882823 3.32084,-9.882823 4.11785,0 z"
         style="font-style:normal;font-variant:normal;font-weight:500;font-stretch:normal;font-size:26.56672859px;font-family:'Keep Calm';-inkscape-font-specification:'Keep Calm Medium';fill:#000;fill-opacity:1"
         id="path4234"
         inkscape:connector-curvature="0" />
      <path
         d="m 177.5108,57.535777 q -1.594,1.939371 -3.87874,3.081741 -2.25817,1.142369 -4.99455,1.142369 -2.36443,0 -4.43664,-0.850135 -2.0722,-0.876702 -3.61307,-2.364439 -1.54088,-1.487737 -2.44414,-3.480241 -0.87671,-2.019072 -0.87671,-4.330377 0,-2.311306 0.87671,-4.30381 0.90326,-2.019072 2.44414,-3.506808 1.54087,-1.514304 3.61307,-2.364439 2.07221,-0.850136 4.43664,-0.850136 2.73638,0 4.99455,1.14237 2.28474,1.142369 3.79904,2.975473 l -2.84264,2.92234 q -0.98297,-1.408036 -2.5504,-2.258171 -1.54088,-0.876703 -3.40055,-0.876703 -1.48773,0 -2.81607,0.584469 -1.30177,0.557901 -2.28474,1.54087 -0.98297,0.956402 -1.56743,2.258172 -0.55791,1.275203 -0.55791,2.736373 0,1.434603 0.55791,2.736373 0.58446,1.275203 1.56743,2.258172 0.98297,0.956402 2.28474,1.54087 1.32834,0.557901 2.81607,0.557901 1.96594,0 3.48025,-0.876702 1.5143,-0.903269 2.52383,-2.364439 l 2.86921,2.948907 z"
         style="font-style:normal;font-variant:normal;font-weight:500;font-stretch:normal;font-size:26.56672859px;font-family:'Keep Calm';-inkscape-font-specification:'Keep Calm Medium';fill:#000;fill-opacity:1"
         id="path4236"
         inkscape:connector-curvature="0" />
      <path
         d="m 201.08877,61.361386 -4.51634,0 -1.96594,-4.250676 -10.30789,0 -1.9925,4.250676 -4.51635,0 10.04223,-21.253383 3.21457,0 10.04222,21.253383 z m -8.10285,-7.677784 -3.53337,-7.651218 -3.58651,7.651218 7.11988,0 z"
         style="font-style:normal;font-variant:normal;font-weight:500;font-stretch:normal;font-size:26.56672859px;font-family:'Keep Calm';-inkscape-font-specification:'Keep Calm Medium';fill:#000;fill-opacity:1"
         id="path4238"
         inkscape:connector-curvature="0" />
      <path
         d="m 220.87351,61.361386 -4.03814,0 -9.59059,-14.903935 0,14.903935 -4.03814,0 0,-21.253383 4.62261,0 9.00612,13.867833 0,-13.867833 4.03814,0 0,21.253383 z"
         style="font-style:normal;font-variant:normal;font-weight:500;font-stretch:normal;font-size:26.56672859px;font-family:'Keep Calm';-inkscape-font-specification:'Keep Calm Medium';fill:#000;fill-opacity:1"
         id="path4240"
         inkscape:connector-curvature="0" />
      <path
         d="m 246.28335,61.361386 -4.51635,0 -1.96594,-4.250676 -10.30789,0 -1.9925,4.250676 -4.51634,0 10.04222,-21.253383 3.21457,0 10.04223,21.253383 z m -8.10286,-7.677784 -3.53337,-7.651218 -3.58651,7.651218 7.11988,0 z"
         style="font-style:normal;font-variant:normal;font-weight:500;font-stretch:normal;font-size:26.56672859px;font-family:'Keep Calm';-inkscape-font-specification:'Keep Calm Medium';fill:#000;fill-opacity:1"
         id="path4242"
         inkscape:connector-curvature="0" />
      <path
         d="m 264.39439,61.361386 -4.54291,0 -1.51431,-4.835144 q -0.2391,-0.797002 -0.61103,-1.46117 -0.34537,-0.664169 -0.85014,-1.14237 -0.50476,-0.478201 -1.22207,-0.743868 -0.69073,-0.265668 -1.64713,-0.265668 l -1.54087,0 0,8.44822 -4.06471,0 0,-21.226816 8.39508,-0.02657 q 1.35491,0 2.52384,0.478201 1.16894,0.451635 2.01907,1.275203 0.85014,0.823569 1.32834,1.939372 0.4782,1.115802 0.4782,2.417572 0,0.929835 -0.29223,1.806537 -0.29224,0.876702 -0.82357,1.620571 -0.53134,0.743868 -1.2752,1.328336 -0.71731,0.557902 -1.59401,0.850136 1.00954,0.371934 1.64714,1.089235 0.6376,0.690735 1.00954,1.673704 0.18596,0.451635 0.34536,0.903269 0.1594,0.451635 0.3188,0.956402 0.18597,0.478202 0.37194,1.06267 0.21253,0.557901 0.45163,1.248636 0.29224,0.876702 0.53134,1.514303 0.26566,0.611035 0.5579,1.089236 z m -5.39305,-14.850801 q 0,-0.743869 -0.29223,-1.354903 -0.26567,-0.611035 -0.74387,-1.062669 -0.4782,-0.451635 -1.14237,-0.690735 -0.6376,-0.265668 -1.38147,-0.265668 l -2.97547,0 0,6.615116 2.97547,0 q 0.74387,0 1.38147,-0.212534 0.66417,-0.239101 1.14237,-0.664168 0.4782,-0.425068 0.74387,-1.009536 0.29223,-0.611035 0.29223,-1.354903 z"
         style="font-style:normal;font-variant:normal;font-weight:500;font-stretch:normal;font-size:26.56672859px;font-family:'Keep Calm';-inkscape-font-specification:'Keep Calm Medium';fill:#000;fill-opacity:1"
         id="path4244"
         inkscape:connector-curvature="0" />
      <path
         d="m 271.04312,61.361386 -4.11784,0 0,-21.226816 4.11784,0 0,21.226816 z"
         style="font-style:normal;font-variant:normal;font-weight:500;font-stretch:normal;font-size:26.56672859px;font-family:'Keep Calm';-inkscape-font-specification:'Keep Calm Medium';fill:#000;fill-opacity:1"
         id="path4246"
         inkscape:connector-curvature="0" />
      <path
         d="m 296.45917,61.361386 -4.51634,0 -1.96594,-4.250676 -10.30789,0 -1.9925,4.250676 -4.51635,0 10.04223,-21.253383 3.21457,0 10.04222,21.253383 z m -8.10285,-7.677784 -3.53337,-7.651218 -3.58651,7.651218 7.11988,0 z"
         style="font-style:normal;font-variant:normal;font-weight:500;font-stretch:normal;font-size:26.56672859px;font-family:'Keep Calm';-inkscape-font-specification:'Keep Calm Medium';fill:#000;fill-opacity:1"
         id="path4248"
         inkscape:connector-curvature="0" />
      <path
         d="m 312.76368,55.782373 q 0,1.195503 -0.53134,2.284739 -0.50477,1.062669 -1.4346,1.886238 -0.92984,0.823568 -2.20504,1.328336 -1.2752,0.478201 -2.81607,0.478201 -1.38147,0 -2.49727,-0.1594 -1.08924,-0.159401 -2.07221,-0.504768 -0.9564,-0.345368 -1.85967,-0.876702 -0.8767,-0.557901 -1.8331,-1.328337 l 2.92234,-2.948906 q 1.2752,1.062669 2.49727,1.514303 1.22207,0.425068 2.65667,0.425068 0.58447,0 1.08924,-0.159401 0.53133,-0.185967 0.90327,-0.478201 0.3985,-0.292234 0.61103,-0.690735 0.2391,-0.398501 0.2391,-0.876702 0,-0.504768 -0.18597,-0.903269 -0.18596,-0.3985 -0.66416,-0.770435 -0.47821,-0.371934 -1.32834,-0.743868 -0.85014,-0.398501 -2.17847,-0.876702 -1.16894,-0.425068 -2.25817,-0.956402 -1.06267,-0.557902 -1.88624,-1.328337 -0.797,-0.770435 -1.30177,-1.806537 -0.4782,-1.036103 -0.4782,-2.444139 0,-1.354903 0.53133,-2.497273 0.5579,-1.142369 1.48774,-1.939371 0.9564,-0.823569 2.20504,-1.275203 1.2752,-0.451634 2.73637,-0.451634 2.44414,0 4.11784,0.637601 1.67371,0.637602 2.97548,1.859671 l -2.86921,2.895774 q -0.797,-0.770436 -1.77997,-1.168937 -0.98297,-0.425067 -2.31131,-0.425067 -0.61103,0 -1.14237,0.185967 -0.50476,0.185967 -0.8767,0.504768 -0.37193,0.292234 -0.61103,0.717301 -0.21254,0.398501 -0.21254,0.850136 0,0.504768 0.21254,0.929835 0.21253,0.398501 0.7173,0.797002 0.50477,0.371934 1.32834,0.770435 0.85013,0.371934 2.09877,0.823569 1.594,0.557901 2.73637,1.222069 1.14237,0.664169 1.85967,1.46117 0.7173,0.797002 1.06267,1.806538 0.34537,0.982969 0.34537,2.231605 z"
         style="font-style:normal;font-variant:normal;font-weight:500;font-stretch:normal;font-size:26.56672859px;font-family:'Keep Calm';-inkscape-font-specification:'Keep Calm Medium';fill:#000;fill-opacity:1"
         id="path4250"
         inkscape:connector-curvature="0" />
    </g>
  </g>
  <g
     transform="translate(-366.41043,316.42122)"
     style="font-style:normal;font-weight:normal;font-size:212.11437988px;line-height:125%;font-family:sans-serif;letter-spacing:0px;word-spacing:0px;display:inline;fill:#e3b44b;fill-opacity:1;stroke:none;stroke-width:1px;stroke-linecap:butt;stroke-linejoin:miter;stroke-opacity:1"
     id="flowRoot4170">
    <g
       aria-label="2019"
       style="font-style:normal;font-weight:normal;font-size:211.35839844px;line-height:1.25;font-family:sans-serif;letter-spacing:0px;word-spacing:0px;fill:#e3b44b;fill-opacity:1;stroke:none;stroke-width:5.28395987px"
       id="text29">
      <path
         d="m 1175.376,-85.55661 h -124.2787 l 65.0984,-77.14582 q 3.8044,-4.64988 7.6089,-9.51112 4.0158,-5.07261 7.1862,-10.35656 3.1703,-5.28396 5.0726,-10.35657 1.9022,-5.28396 1.9022,-10.1452 0,-11.20199 -7.1862,-17.75411 -6.9748,-6.55211 -17.3314,-6.55211 -11.8361,0 -21.1358,6.1294 -9.2998,5.91803 -15.6406,15.42916 l -22.8267,-22.61535 q 11.202,-14.16101 25.363,-21.76991 14.1611,-7.6089 35.0855,-7.6089 10.9907,0 21.1359,3.38173 10.3565,3.17038 18.3882,9.72249 8.0316,6.55211 12.8928,16.27459 4.8613,9.72249 4.8613,22.40399 0,8.45434 -2.325,16.06324 -2.3249,7.6089 -6.3407,14.79509 -3.8045,6.97483 -9.0884,13.94965 -5.284,6.76347 -10.9907,13.94966 l -24.0948,30.01289 h 56.644 z"
         style="font-style:normal;font-variant:normal;font-weight:normal;font-stretch:normal;font-family:'Keep Calm';-inkscape-font-specification:'Keep Calm';fill:#efb300;fill-opacity:1;stroke-width:5.28395987px"
         id="path31" />
      <path
         d="m 1339.0004,-168.19774 q 0,15.64052 -4.8612,31.06968 -4.8612,15.42916 -14.161,27.68795 -9.2998,12.04743 -22.8267,19.656332 -13.3156,7.397544 -30.2243,7.397544 -16.9086,0 -30.2242,-7.397544 -13.3156,-7.608902 -22.6154,-19.656332 -9.2997,-12.25879 -14.3723,-27.68795 -4.8613,-15.42916 -4.8613,-31.06968 0,-16.2746 4.6499,-32.33784 4.6499,-16.06324 13.5269,-28.9561 9.0885,-12.89286 22.6154,-20.71312 13.5269,-8.03162 31.281,-8.03162 17.7541,0 31.0697,8.03162 13.527,8.03162 22.6154,20.92448 9.0884,12.89286 13.7383,28.9561 4.6498,16.06324 4.6498,32.12648 z m -34.24,0 q 0,-8.87706 -1.9022,-19.44498 -1.6909,-10.56792 -6.1294,-19.65633 -4.4386,-9.08841 -11.8361,-15.2178 -7.1862,-6.1294 -17.9655,-6.1294 -10.3565,0 -17.5427,6.34076 -7.1862,6.12939 -11.8361,15.42916 -4.4385,9.08841 -6.5521,19.65633 -1.9022,10.56792 -1.9022,19.02226 0,8.87705 2.1136,18.81089 2.1135,9.72249 6.5521,18.17683 4.6499,8.45433 11.836,13.94965 7.1862,5.49532 17.3314,5.49532 10.1452,0 17.3314,-5.49532 7.1862,-5.49532 11.6247,-13.7383 4.6499,-8.45433 6.7635,-18.38818 2.1136,-9.93384 2.1136,-18.81089 z"
         style="font-style:normal;font-variant:normal;font-weight:normal;font-stretch:normal;font-family:'Keep Calm';-inkscape-font-specification:'Keep Calm';fill:#efb300;fill-opacity:1;stroke-width:5.28395987px"
         id="path33" />
      <path
         d="m 1418.2533,-85.55661 h -32.5492 v -132.52172 l -27.4766,10.56792 v -27.68795 l 60.0258,-22.40399 z"
         style="font-style:normal;font-variant:normal;font-weight:normal;font-stretch:normal;font-family:'Keep Calm';-inkscape-font-specification:'Keep Calm';fill:#efb300;fill-opacity:1;stroke-width:5.28395987px"
         id="path35" />
      <path
         d="m 1577.8916,-170.09997 q 0,19.65633 -5.0726,35.93093 -4.8613,16.06324 -13.9497,27.68795 -8.877,11.413352 -21.7699,17.754104 -12.6815,6.340752 -28.5334,6.340752 -17.9654,0 -31.281,-6.340752 -13.3156,-6.55211 -24.9403,-20.501764 l 21.9813,-22.19263 q 5.918,8.87705 14.3723,14.16101 8.4544,5.28396 19.0223,5.28396 7.1862,0 13.3156,-3.38173 6.1294,-3.38174 10.5679,-9.08842 4.6499,-5.91803 7.1862,-13.73829 2.5363,-7.82026 2.5363,-16.48596 -5.7067,4.43853 -14.161,7.18619 -8.4544,2.74766 -16.2746,2.74766 -12.6815,0 -24.0949,-4.22717 -11.4133,-4.22717 -20.079,-11.62471 -8.6657,-7.6089 -13.7383,-17.96547 -5.0726,-10.56792 -5.0726,-23.24942 0,-10.77928 4.8612,-20.71312 4.8613,-10.14521 13.1042,-17.96547 8.4544,-7.82026 19.8677,-12.47014 11.4134,-4.64989 24.729,-4.64989 12.6815,0 24.7289,4.64989 12.2588,4.43852 21.7699,14.79509 9.5111,10.1452 15.2178,27.05387 5.7067,16.69731 5.7067,41.00353 z m -34.8741,-30.01289 q 0,-5.70668 -2.5363,-10.77928 -2.5363,-5.0726 -6.9749,-8.87705 -4.2271,-3.80445 -10.1452,-5.91804 -5.7067,-2.32494 -12.0474,-2.32494 -6.5521,0 -12.2588,2.32494 -5.4953,2.11359 -9.7225,5.91804 -4.0158,3.80445 -6.3407,8.87705 -2.325,5.0726 -2.325,10.77928 0,5.70667 2.325,10.77928 2.3249,5.0726 6.3407,8.87705 4.2272,3.59309 9.7225,5.91803 5.7067,2.11359 12.2588,2.11359 6.3407,0 12.0474,-2.11359 5.9181,-2.32494 10.1452,-5.91803 4.4386,-3.80445 6.9749,-8.87705 2.5363,-5.07261 2.5363,-10.77928 z"
         style="font-style:normal;font-variant:normal;font-weight:normal;font-stretch:normal;font-family:'Keep Calm';-inkscape-font-specification:'Keep Calm';fill:#efb300;fill-opacity:1;stroke-width:5.28395987px"
         id="path37" />
    </g>
  </g>
</svg>
